# xmcd CD database file
#
# Track frame offsets:
#	150
#	10303
#	22430
#	34588
#	47007
#	58140
#	71506
#	85010
#	96996
#	110296
#	120985
#	133420
#	151064
#	164561
#	174376
#	185823
#	201100
#	211801
#	225585
#	235075
#	258673
#	268589
#	277933
#	290447
#
# Disc length: 4060
# Revision: 2
# Processed by: cddbd v1.5.2PL0 Copyright (c) Steve Scherf et al.
# Submitted via: cddb.el 1.0 (Emacs 27.0.50)
#
DISCID=580fda18
DTITLE=Various Artist - Country Soul Sisters Vol 2
DYEAR=2012
DGENRE=Country
TTITLE0=Jeannie C Riley - The Little Town Square
TTITLE1=Linda Mandrel - Colour Him Father
TTITLE2=Dolly Parton - The Bargain Store
TTITLE3=Dianna Trask - Don't Let It Get Away
TTITLE4=Wanda Jackson and The Party Timers - My Baby Walked Right Out On Me
TTITLE5=Loretta Lynn - Working Girl
TTITLE6=Cher - Chastity's Song
TTITLE7=Dolly Parton - Jolene
TTITLE8=Tammy Wynette - Baby, Come Home
TTITLE9=Vikki Carr - Livin on a Prayer, A Hope and a Hand-Me Down
TTITLE10=Jodie Miller - Don't Throw Your Love On The Wind
TTITLE11=Jeannie C Riley - The Rib
TTITLE12=Bobby Gentry - Okolona River Bottom Band
TTITLE13=Joan Harris - That's a Fact of Life
TTITLE14=Linda Ronstadt - Baby, You've Been On My Mind
TTITLE15=Jodie Miller - Natural Woman
TTITLE16=Jean Sheppard - I'm Alone
TTITLE17=Barbara Mandrel - I Dont Want to be Right
TTITLE18=Lynn Anderson - Stay There Till I Get There
TTITLE19=Kitty Wells - Forever Young
TTITLE20=Jan Howard - Your Ole Handy Man
TTITLE21=Patsy Cline - Come On In
TTITLE22=Barbara Mandrel - I Never Said I Love You
TTITLE23=Lynn Anderson - If I Can't Be Your Woman
EXTD=
EXTT0=
EXTT1=
EXTT2=
EXTT3=
EXTT4=
EXTT5=
EXTT6=
EXTT7=
EXTT8=
EXTT9=
EXTT10=
EXTT11=
EXTT12=
EXTT13=
EXTT14=
EXTT15=
EXTT16=
EXTT17=
EXTT18=
EXTT19=
EXTT20=
EXTT21=
EXTT22=
EXTT23=
PLAYORDER=
